<svg id="Layer_1_1_" enable-background="new 0 0 64 64" height="512" viewBox="0 0 64 64" width="512" xmlns="http://www.w3.org/2000/svg"><path d="m50 10h-.61c-1.443-4.075-5.32-7-9.89-7-4.234 0-7.873 2.511-9.534 6.121-1.904-1.926-4.544-3.121-7.466-3.121-5.799 0-10.5 4.701-10.5 10.5v3.5h-3c-3.314 0-6 2.686-6 6s2.686 6 6 6h41c6.075 0 11-4.925 11-11s-4.925-11-11-11z" fill="#a8d5fe"/><path d="m50 10h-.61c-1.443-4.075-5.32-7-9.89-7-1.615 0-3.142.367-4.507 1.02 4.353.202 8.006 3.053 9.397 6.98h.61c6.075 0 11 4.925 11 11 0 4.445-2.642 8.265-6.437 10h.437c6.075 0 11-4.925 11-11s-4.925-11-11-11z" fill="#cbe6fe"/><path d="m51.576 48.325c.507-.217.976-.491 1.424-.79 2.462-1.639 4-4.408 4-7.436-2.339-.058-4.326-1.728-4.785-4.022l-.215-1.077v.049c0 2.743-2.208 4.975-4.95 5.005l-4.05.045c0 3.028 1.538 5.797 4 7.436.449.299.917.573 1.424.79 1.007.431 2.145.431 3.152 0z" fill="#ffe5cf"/><path d="m52 35.049v-.049l.215 1.076c.459 2.294 2.446 3.964 4.785 4.022v-3.098c0-3.314-2.686-6-6-6h-2c-3.314 0-6 2.686-6 6v1.437 1.662l4.05-.044c2.742-.031 4.95-2.263 4.95-5.006z" fill="#523d02"/><path d="m57 53c-.976 0-1.858-.363-2.552-.943l-4.448 1.943-4.236-2.118c-.719.689-1.69 1.118-2.764 1.118-2.209 0-4 1.791-4 4v4h22v-4c0-2.209-1.791-4-4-4z" fill="#2b67b3"/><path d="m54.448 52.057c-.878-.734-1.448-1.823-1.448-3.057v-1.465c-.449.299-.917.573-1.424.79-1.006.431-2.145.431-3.151 0-.507-.217-.976-.491-1.424-.79v1.465c0 1.135-.477 2.154-1.236 2.882l4.235 2.118z" fill="#ffe5cf"/><path d="m15.576 48.325c.507-.217.976-.491 1.424-.79 2.462-1.639 4-4.408 4-7.436-2.339-.058-4.326-1.728-4.785-4.022l-.215-1.077v.049c0 2.743-2.208 4.975-4.95 5.005l-4.05.045c0 3.028 1.538 5.797 4 7.436.449.299.917.573 1.424.79 1.007.431 2.145.431 3.152 0z" fill="#ffe5cf"/><path d="m16 35.049v-.049l.215 1.076c.459 2.294 2.446 3.964 4.785 4.022v-3.098c0-3.314-2.686-6-6-6h-2c-3.314 0-6 2.686-6 6v1.437 1.662l4.05-.044c2.742-.031 4.95-2.263 4.95-5.006z" fill="#523d02"/><path d="m21 53c-.976 0-1.858-.363-2.552-.943l-4.448 1.943-4.236-2.118c-.719.689-1.69 1.118-2.764 1.118-2.209 0-4 1.791-4 4v4h22v-4c0-2.209-1.791-4-4-4z" fill="#2b67b3"/><path d="m18.448 52.057c-.878-.734-1.448-1.823-1.448-3.057v-1.465c-.449.299-.917.573-1.424.79-1.006.431-2.145.431-3.151 0-.507-.217-.976-.491-1.424-.79v1.465c0 1.135-.477 2.154-1.236 2.882l4.235 2.118z" fill="#ffe5cf"/><circle cx="32" cy="20" fill="#febe07" r="6"/><path d="m33.576 48.325c.507-.217.976-.491 1.424-.79 2.462-1.639 4-4.408 4-7.436-2.339-.058-4.326-1.728-4.785-4.022l-.215-1.077v.049c0 2.743-2.208 4.975-4.95 5.005l-4.05.045c0 3.028 1.538 5.797 4 7.436.449.299.917.573 1.424.79 1.007.431 2.145.431 3.152 0z" fill="#ffe5cf"/><path d="m34 35.049v-.049l.215 1.076c.459 2.294 2.446 3.964 4.785 4.022v-3.098c0-3.314-2.686-6-6-6h-2c-3.314 0-6 2.686-6 6v1.437 1.662l4.05-.044c2.742-.031 4.95-2.263 4.95-5.006z" fill="#523d02"/><path d="m36.448 52.057c-.878-.734-1.448-1.823-1.448-3.057v-1.465c-.449.299-.917.573-1.424.79-1.006.431-2.145.431-3.151 0-.507-.217-.976-.491-1.424-.79v1.465c0 1.135-.477 2.154-1.236 2.882l4.235 2.118z" fill="#ffe5cf"/><path d="m42.5 53.05c-.539.068-1.04.25-1.492.509 1.186.694 1.992 1.968 1.992 3.441v4h3v-4c0-2.038-1.53-3.701-3.5-3.95z" fill="#004eb1"/><path d="m39 53c-.976 0-1.858-.363-2.552-.943l-4.448 1.943-4.236-2.118c-.719.689-1.69 1.118-2.764 1.118-2.209 0-4 1.791-4 4v4h22v-4c0-2.209-1.791-4-4-4z" fill="#2b67b3"/><path d="m22.992 53.559c-.451-.259-.952-.441-1.492-.509-1.97.249-3.5 1.912-3.5 3.95v4h3v-4c0-1.473.806-2.747 1.992-3.441z" fill="#004eb1"/><path d="m57 52c-1.654 0-3-1.346-3-3v-.957c2.474-1.851 4-4.762 4-7.945v-3.098c0-3.86-3.141-7-7-7h-2c-3.859 0-7 3.14-7 7v3.099c0 3.183 1.526 6.094 4 7.945v.956c0 1.654-1.346 3-3 3-.685 0-1.351.148-1.986.431-.618-.273-1.297-.431-2.014-.431-1.654 0-3-1.346-3-3v-.957c2.474-1.851 4-4.762 4-7.945v-3.098c0-3.86-3.141-7-7-7h-2c-3.859 0-7 3.14-7 7v3.099c0 3.183 1.526 6.094 4 7.945v.956c0 1.654-1.346 3-3 3-.717 0-1.396.158-2.014.431-.635-.283-1.301-.431-1.986-.431-1.654 0-3-1.346-3-3v-.957c2.474-1.851 4-4.762 4-7.945v-3.098c0-3.86-3.141-7-7-7h-2c-3.859 0-7 3.14-7 7v3.099c0 3.183 1.526 6.094 4 7.945v.956c0 1.654-1.346 3-3 3-2.757 0-5 2.243-5 5v4c0 .552.447 1 1 1h18 22 18c.553 0 1-.448 1-1v-4c0-2.757-2.243-5-5-5zm-8-20h2c2.757 0 5 2.243 5 5v1.928c-1.407-.408-2.505-1.548-2.805-3.047l-.215-1.077c-.101-.504-.553-.832-1.079-.775-.511.051-.901.506-.901 1.02 0 2.184-1.777 3.981-3.961 4.005l-3.039.034v-2.088c0-2.757 2.243-5 5-5zm-4.927 9.087 2.987-.033c2.078-.023 3.911-1.116 4.973-2.761.863 1.383 2.267 2.354 3.902 2.68-.312 2.826-2.098 5.295-4.753 6.433h-.001c-.752.321-1.612.321-2.364 0-2.619-1.123-4.397-3.541-4.744-6.319zm3.958 8.157c.625.269 1.297.402 1.969.402s1.344-.134 1.97-.402c.018-.008.034-.019.052-.027.04.915.318 1.768.787 2.492l-2.777 1.19-2.742-1.371c.405-.685.651-1.468.688-2.311.019.007.035.019.053.027zm-17.031-17.244h2c2.757 0 5 2.243 5 5v1.928c-1.407-.408-2.505-1.548-2.805-3.047l-.215-1.077c-.101-.504-.55-.832-1.079-.775-.511.051-.901.506-.901 1.02 0 2.184-1.777 3.981-3.961 4.005l-3.039.034v-2.088c0-2.757 2.243-5 5-5zm-4.927 9.087 2.987-.033c2.078-.023 3.911-1.116 4.973-2.761.863 1.383 2.267 2.354 3.902 2.68-.312 2.826-2.098 5.295-4.753 6.433h-.001c-.752.321-1.612.321-2.364 0-2.619-1.123-4.397-3.541-4.744-6.319zm3.958 8.157c.625.269 1.297.402 1.969.402s1.344-.134 1.97-.402c.018-.008.034-.019.052-.027.04.915.318 1.768.787 2.492l-2.777 1.19-2.742-1.371c.405-.685.651-1.468.688-2.311.019.007.035.019.053.027zm-17.031-17.244h2c2.757 0 5 2.243 5 5v1.928c-1.407-.408-2.505-1.548-2.805-3.047l-.215-1.077c-.101-.504-.554-.832-1.079-.775-.511.051-.901.506-.901 1.02 0 2.184-1.777 3.981-3.961 4.005l-3.039.034v-2.088c0-2.757 2.243-5 5-5zm-4.927 9.087 2.987-.033c2.078-.023 3.911-1.116 4.973-2.761.863 1.383 2.267 2.354 3.902 2.68-.312 2.826-2.098 5.295-4.753 6.433h-.001c-.752.321-1.612.321-2.364 0-2.619-1.123-4.397-3.541-4.744-6.319zm3.958 8.157c.625.269 1.297.402 1.969.402s1.344-.134 1.97-.402c.018-.008.034-.019.052-.027.04.915.318 1.768.787 2.492l-2.777 1.19-2.742-1.371c.405-.685.651-1.468.688-2.311.019.007.035.019.053.027zm-8.031 7.756c0-1.654 1.346-3 3-3 1.079 0 2.073-.352 2.892-.936l3.661 1.831c.14.07.294.105.447.105.134 0 .268-.027.394-.081l3.957-1.696c.77.485 1.674.777 2.649.777.008 0 .015.003.023.003-.633.838-1.023 1.869-1.023 2.997v3h-16zm38 3h-20v-3c0-1.654 1.346-3 3-3 1.079 0 2.073-.352 2.892-.936l3.661 1.831c.14.07.294.105.447.105.134 0 .268-.027.394-.081l3.957-1.696c.77.485 1.674.777 2.649.777 1.654 0 3 1.346 3 3zm18 0h-16v-3c0-1.128-.39-2.159-1.023-2.997.008 0 .015-.003.023-.003 1.079 0 2.073-.352 2.892-.936l3.661 1.831c.14.07.294.105.447.105.134 0 .268-.027.394-.081l3.957-1.696c.77.485 1.674.777 2.649.777 1.654 0 3 1.346 3 3z"/><path d="m50.073 9c-1.794-4.215-5.956-7-10.573-7-4.021 0-7.743 2.13-9.813 5.523-2.034-1.636-4.541-2.523-7.187-2.523-6.341 0-11.5 5.159-11.5 11.5v2.5h-2c-3.859 0-7 3.14-7 7 0 2.491 1.341 4.814 3.499 6.063l1.002-1.731c-1.543-.893-2.501-2.553-2.501-4.332 0-2.757 2.243-5 5-5h3c.553 0 1-.448 1-1v-3.5c0-5.238 4.262-9.5 9.5-9.5 2.556 0 4.955 1.003 6.755 2.824.23.233.562.338.884.282.323-.057.599-.269.735-.567 1.549-3.365 4.935-5.539 8.626-5.539 4.011 0 7.606 2.545 8.947 6.333.141.4.519.667.943.667h.61c5.514 0 10 4.486 10 10 0 3.25-1.589 6.309-4.25 8.182l1.152 1.636c3.192-2.248 5.098-5.918 5.098-9.818 0-6.593-5.344-11.96-11.927-12z"/><path d="m50 14v2c2.206 0 4 1.794 4 4h2c0-3.309-2.691-6-6-6z"/><path d="m54 22h2v2h-2z"/><path d="m32 27c3.859 0 7-3.14 7-7s-3.141-7-7-7-7 3.14-7 7 3.141 7 7 7zm0-12c2.757 0 5 2.243 5 5s-2.243 5-5 5-5-2.243-5-5 2.243-5 5-5z"/><path d="m31 23h2v-2h2v-2h-2v-2h-2v2h-2v2h2z"/></svg>