<svg id="Layer_1_1_" enable-background="new 0 0 64 64" height="512" viewBox="0 0 64 64" width="512" xmlns="http://www.w3.org/2000/svg"><path d="m60 57h-56c-.552 0-1-.448-1-1v-36c0-.552.448-1 1-1h56c.552 0 1 .448 1 1v36c0 .552-.448 1-1 1z" fill="#cbe6fe"/><path d="m60 19h-2v34c0 .552-.448 1-1 1h-54v2c0 .552.448 1 1 1h56c.552 0 1-.448 1-1v-36c0-.552-.448-1-1-1z" fill="#b9defe"/><path d="m32.028 15.031-.028-.031-.028.031c-1.331 1.498-2.818 2.822-4.419 3.969-4.497 3.22-9.925 5-15.554 5l1.519 11.645c.952 7.296 4.641 13.958 10.321 18.635l3.304 2.72 4.857 4 4.857-4 3.303-2.72c5.68-4.677 9.369-11.339 10.321-18.635l1.519-11.645c-7.633 0-14.901-3.264-19.972-8.969z" fill="#004eb1"/><path d="m23.84 54.28 3.303 2.72 4.857 4 4.857-4 3.303-2.72c5.68-4.677 9.369-11.339 10.321-18.635l1.519-11.645z" fill="#004399"/><path d="m8 57h8v4h-8z" fill="#2b67b3"/><path d="m48 57h8v4h-8z" fill="#2b67b3"/><g fill="#ffd45a"><circle cx="5" cy="5" r="2"/><circle cx="27" cy="7" r="2"/><circle cx="59" cy="5" r="2"/><circle cx="47" cy="11" r="2"/><circle cx="38" cy="7" r="2"/><circle cx="32" cy="38" r="11"/></g><circle cx="32" cy="38" fill="#febe07" r="8"/><path d="m43.968 39.172-1.99-.193c-.499 5.143-4.777 9.021-9.95 9.021-5.514 0-10-4.486-10-10s4.486-10 10-10c3.897 0 7.465 2.297 9.09 5.853l1.819-.832c-1.95-4.265-6.232-7.021-10.909-7.021-6.617 0-12 5.383-12 12s5.383 12 12 12c6.208 0 11.342-4.655 11.94-10.828z"/><path d="m41.028 38c0-4.962-4.038-9-9-9s-9 4.038-9 9c0 3.174 1.701 6.147 4.438 7.76l1.015-1.724c-2.129-1.254-3.453-3.567-3.453-6.036 0-3.86 3.14-7 7-7s7 3.14 7 7-3.14 7-7 7c-.309 0-.62-.021-.924-.061l-.261 1.983c.39.052.789.078 1.185.078 4.962 0 9-4.038 9-9z"/><path d="m29.028 40v1c0 .552.448 1 1 1h1v1h2v-1h1c.552 0 1-.448 1-1v-3c0-.552-.448-1-1-1h-3v-1h4v-1c0-.552-.448-1-1-1h-1v-1h-2v1h-1c-.552 0-1 .448-1 1v3c0 .552.448 1 1 1h3v1z"/><path d="m59.707 11.707c.188-.187.293-.442.293-.707v-3.184c1.161-.414 2-1.514 2-2.816 0-1.654-1.346-3-3-3s-3 1.346-3 3c0 1.302.839 2.402 2 2.816v2.77l-3.707 3.707c-.188.187-.293.442-.293.707v3h-6v-4.184c1.161-.414 2-1.514 2-2.816 0-1.654-1.346-3-3-3s-3 1.346-3 3c0 1.302.839 2.402 2 2.816v4.184h-7v-8.184c1.161-.414 2-1.514 2-2.816 0-1.654-1.346-3-3-3s-3 1.346-3 3c0 1.302.839 2.402 2 2.816v8.184h-.23c-1.453-1.067-2.804-2.292-4.024-3.665-.189-.213-.475-.319-.76-.319-.286 0-.571.138-.761.351-1.208 1.359-2.548 2.574-3.99 3.633h-9.235v-10h6.184c.414 1.161 1.514 2 2.816 2 1.654 0 3-1.346 3-3s-1.346-3-3-3c-1.302 0-2.402.839-2.816 2h-7.184c-.552 0-1 .448-1 1v11h-3v-2c0-.4-.238-.762-.606-.919l-6.394-2.74v-4.525c1.161-.414 2-1.514 2-2.816 0-1.654-1.346-3-3-3s-3 1.346-3 3c0 1.302.839 2.402 2 2.816v5.184c0 .4.238.762.606.919l6.394 2.74v1.341h-7c-1.103 0-2 .897-2 2v36c0 1.103.897 2 2 2h3v3c0 .552.448 1 1 1h8c.552 0 1-.448 1-1v-3h9.784l4.58 3.772c.185.152.41.228.636.228s.451-.076.636-.228l4.58-3.772h9.784v3c0 .552.448 1 1 1h8c.552 0 1-.448 1-1v-3h3c1.103 0 2-.897 2-2v-36c0-1.103-.897-2-2-2h-4v-2.586zm-.707-7.707c.551 0 1 .449 1 1s-.449 1-1 1-1-.449-1-1 .449-1 1-1zm-12 6c.551 0 1 .449 1 1s-.449 1-1 1-1-.449-1-1 .449-1 1-1zm-9-4c.551 0 1 .449 1 1s-.449 1-1 1-1-.449-1-1 .449-1 1-1zm-11 0c.551 0 1 .449 1 1s-.449 1-1 1-1-.449-1-1 .449-1 1-1zm-22-2c.551 0 1 .449 1 1s-.449 1-1 1-1-.449-1-1 .449-1 1-1zm10 56h-6v-2h6zm-11-4v-36h20.038c-3.672 1.944-7.798 3-12.038 3-.288 0-.562.124-.751.34s-.277.504-.24.789l1.519 11.645c.988 7.575 4.78 14.422 10.677 19.278l1.151.948zm28 3.705-7.524-6.197c-5.504-4.532-9.043-10.922-9.965-17.993l-1.375-10.539c7.131-.293 13.892-3.335 18.863-8.503 4.952 5.159 11.723 8.209 18.865 8.503l-1.375 10.539c-.922 7.07-4.461 13.46-9.965 17.993zm23 .295h-6v-2h6zm5-4h-20.356l1.151-.948c5.897-4.856 9.688-11.703 10.677-19.278l1.519-11.645c.037-.285-.05-.573-.24-.789s-.463-.34-.751-.34c-4.236 0-8.358-1.053-12.032-3h20.032z"/><path d="m55 52h2v2h-2z"/><path d="m46 52h7v2h-7z"/><path d="m7 52h2v2h-2z"/><path d="m11 52h7v2h-7z"/></svg>