<svg id="Layer_1_1_" enable-background="new 0 0 64 64" height="512" viewBox="0 0 64 64" width="512" xmlns="http://www.w3.org/2000/svg"><path d="m8 33h48v28h-48z" fill="#2b67b3"/><path d="m56 50.608c-.141-.228-.302-.446-.5-.644l-2.5-2.5-4.89-4.89c.567-1.255.89-2.643.89-4.11 0-2.018-.603-3.893-1.631-5.464h-16.738c-1.028 1.571-1.631 3.446-1.631 5.464 0 5.523 4.477 10 10 10 1.466 0 2.855-.323 4.11-.89l7.39 7.39c.69.691 1.595 1.036 2.5 1.036s1.81-.345 2.5-1.036c.198-.198.359-.416.5-.644z" fill="#0a5bc2"/><path d="m8 33v20 3h19c2.761 0 5-2.239 5-5v-18z" fill="#0a5bc2"/><path d="m45 16v3c0 2.209-1.791 4-4 4h-12v10h3.838c1.544-3.53 5.063-6 9.162-6s7.619 2.47 9.162 6h1.838v-17c0-2.209-1.791-4-4-4s-4 1.791-4 4z" fill="#e8e5df"/><path d="m7 53h1 18c-1.657 0-3-1.343-3-3v-3h-18-2v2c0 2.209 1.791 4 4 4z" fill="#e8e5df"/><path d="m41 23c2.209 0 4-1.791 4-4v-3c0-2.209 1.791-4 4-4h-12v7c0 2.209 1.791 4 4 4z" fill="#fffcf5"/><path d="m9 3c-2.209 0-4 1.791-4 4v40h18v3c0 1.657 1.343 3 3 3s3-1.343 3-3v-17-10-16c0-2.209 1.791-4 4-4z" fill="#fffcf5"/><path d="m29 7v16h12c-2.209 0-4-1.791-4-4v-7-5c0-2.209-1.791-4-4-4s-4 1.791-4 4z" fill="#e8e5df"/><path d="m46.11 46.11 7.39 7.39c.69.69 1.595 1.036 2.5 1.036s1.81-.345 2.5-1.036c1.381-1.381 1.381-3.619 0-5l-2.5-2.5-4.89-4.89c-1.002 2.216-2.784 3.998-5 5z" fill="#5aa2ff"/><circle cx="42" cy="37" fill="#5aa2ff" r="10"/><circle cx="42" cy="37" fill="#cbe6fe" r="8"/><path d="m7 54v7c0 .552.447 1 1 1h48c.553 0 1-.448 1-1v-5.589c.809-.182 1.579-.576 2.207-1.204 1.769-1.769 1.769-4.646 0-6.414l-2.207-2.207v-12.586c0-.552-.447-1-1-1h-2v-16c0-2.757-2.243-5-5-5h-11v-4c0-2.757-2.243-5-5-5h-24c-2.757 0-5 2.243-5 5v39h-1c-.553 0-1 .448-1 1v2c0 2.757 2.243 5 5 5zm2 6v-6h17c2.206 0 4-1.794 4-4v-16h1.426c-.271.955-.426 1.959-.426 3 0 6.065 4.935 11 11 11 1.363 0 2.664-.261 3.87-.716l6.923 6.923c.628.628 1.398 1.022 2.207 1.204v4.589zm33-14c-4.963 0-9-4.038-9-9s4.037-9 9-9 9 4.038 9 9-4.037 9-9 9zm15.793 6.793c-.988.988-2.598.988-3.586 0l-6.442-6.442c1.456-.901 2.685-2.129 3.586-3.586l6.442 6.442c.988.989.988 2.597 0 3.586zm-2.793-9.207-2.716-2.716c.455-1.206.716-2.507.716-3.87 0-1.041-.155-2.045-.426-3h2.426zm-3-27.586v16h-.214c-1.825-3.556-5.521-6-9.786-6s-7.961 2.444-9.786 6h-2.214v-8h11c2.757 0 5-2.243 5-5v-3c0-1.654 1.346-3 3-3s3 1.346 3 3zm-6.974-3c-.635.838-1.026 1.87-1.026 3v3c0 1.654-1.346 3-3 3s-3-1.346-3-3v-6zm-9.026-6v12c0 1.13.391 2.162 1.026 3h-7.026v-15c0-1.654 1.346-3 3-3s3 1.346 3 3zm-30 0c0-1.654 1.346-3 3-3h20.026c-.635.838-1.026 1.87-1.026 3v43c0 1.103-.897 2-2 2s-2-.897-2-2v-3c0-.552-.447-1-1-1h-17zm-2 41h18v2c0 .728.195 1.411.537 2h-15.537c-1.654 0-3-1.346-3-3z"/><path d="m21 29h5v2h-5z"/><path d="m8 29h11v2h-11z"/><path d="m8 10h2v2h-2z"/><path d="m8 33h18v2h-18z"/><path d="m8 37h18v2h-18z"/><path d="m8 41h18v2h-18z"/><path d="m21 14h5v2h-5z"/><path d="m8 14h11v2h-11z"/><path d="m21 18h5v2h-5z"/><path d="m8 18h11v2h-11z"/><path d="m8 25h2v2h-2z"/><path d="m40 38.586-2.293-2.293-1.414 1.414 3 3c.195.195.451.293.707.293s.512-.098.707-.293l7-7-1.414-1.414z"/></svg>